<svg width="57" height="74" viewBox="0 0 57 74" fill="none" xmlns="http://www.w3.org/2000/svg">
<path d="M16.71 0.899999C16.8787 0.899999 17.0243 0.961332 17.147 1.084C17.2697 1.20667 17.331 1.35233 17.331 1.521V5.224C17.331 5.39267 17.2697 5.53833 17.147 5.661C17.0243 5.78367 16.8787 5.845 16.71 5.845H11.765V16.379C11.765 16.5477 11.7037 16.6933 11.581 16.816C11.4583 16.9387 11.3127 17 11.144 17H6.406C6.23733 17 6.09167 16.9387 5.969 16.816C5.84633 16.6933 5.785 16.5477 5.785 16.379V5.845H0.84C0.671333 5.845 0.525667 5.78367 0.403 5.661C0.280333 5.53833 0.219 5.39267 0.219 5.224V1.521C0.219 1.35233 0.280333 1.20667 0.403 1.084C0.525667 0.961332 0.671333 0.899999 0.84 0.899999H16.71ZM36.872 10.353C36.872 12.699 36.09 14.4317 34.526 15.551C32.9773 16.6703 30.9073 17.23 28.316 17.23C25.7247 17.23 23.647 16.6703 22.083 15.551C20.5343 14.4317 19.76 12.6837 19.76 10.307V7.593C19.76 6.029 20.128 4.73333 20.864 3.706C21.6153 2.66333 22.635 1.89667 23.923 1.406C25.211 0.915332 26.6753 0.669999 28.316 0.669999C29.9567 0.669999 31.4133 0.915332 32.686 1.406C33.974 1.89667 34.9937 2.65567 35.745 3.683C36.4963 4.71033 36.872 5.99833 36.872 7.547V10.353ZM25.97 10.79C25.97 11.4187 26.177 11.9017 26.591 12.239C27.0203 12.5763 27.5953 12.745 28.316 12.745C29.0367 12.745 29.604 12.5763 30.018 12.239C30.4473 11.8863 30.662 11.3957 30.662 10.767V7.133C30.662 6.50433 30.4473 6.02133 30.018 5.684C29.604 5.33133 29.0367 5.155 28.316 5.155C27.5953 5.155 27.0203 5.32367 26.591 5.661C26.177 5.99833 25.97 6.48133 25.97 7.11V10.79ZM55.309 12.515C55.4777 12.515 55.6234 12.5763 55.746 12.699C55.8687 12.8217 55.93 12.9673 55.93 13.136V16.379C55.93 16.5477 55.8687 16.6933 55.746 16.816C55.6234 16.9387 55.4777 17 55.309 17H40.773C40.6044 17 40.4587 16.9387 40.336 16.816C40.2134 16.6933 40.152 16.5477 40.152 16.379V1.521C40.152 1.35233 40.2134 1.20667 40.336 1.084C40.4587 0.961332 40.6044 0.899999 40.773 0.899999H55.079C55.2477 0.899999 55.3934 0.961332 55.516 1.084C55.6387 1.20667 55.7 1.35233 55.7 1.521V4.764C55.7 4.93267 55.6387 5.07833 55.516 5.201C55.3934 5.32367 55.2477 5.385 55.079 5.385H46.132V6.834H53.814C53.9827 6.834 54.1284 6.89533 54.251 7.018C54.3737 7.14067 54.435 7.28633 54.435 7.455V10.445C54.435 10.6137 54.3737 10.7593 54.251 10.882C54.1284 11.0047 53.9827 11.066 53.814 11.066H46.132V12.515H55.309ZM16.71 28.9C16.8787 28.9 17.0243 28.9613 17.147 29.084C17.2697 29.2067 17.331 29.3523 17.331 29.521V33.224C17.331 33.3927 17.2697 33.5383 17.147 33.661C17.0243 33.7837 16.8787 33.845 16.71 33.845H11.765V44.379C11.765 44.5477 11.7037 44.6933 11.581 44.816C11.4583 44.9387 11.3127 45 11.144 45H6.406C6.23733 45 6.09167 44.9387 5.969 44.816C5.84633 44.6933 5.785 44.5477 5.785 44.379V33.845H0.84C0.671333 33.845 0.525667 33.7837 0.403 33.661C0.280333 33.5383 0.219 33.3927 0.219 33.224V29.521C0.219 29.3523 0.280333 29.2067 0.403 29.084C0.525667 28.9613 0.671333 28.9 0.84 28.9H16.71ZM31.444 40.285H35.607C35.7757 40.285 35.9213 40.3463 36.044 40.469C36.1667 40.5917 36.228 40.7373 36.228 40.906V44.379C36.228 44.5477 36.1667 44.6933 36.044 44.816C35.9213 44.9387 35.7757 45 35.607 45H21.025C20.8563 45 20.7107 44.9387 20.588 44.816C20.4653 44.6933 20.404 44.5477 20.404 44.379V40.906C20.404 40.7373 20.4653 40.5917 20.588 40.469C20.7107 40.3463 20.8563 40.285 21.025 40.285H25.234V33.615H21.025C20.8563 33.615 20.7107 33.5537 20.588 33.431C20.4653 33.3083 20.404 33.1627 20.404 32.994V29.521C20.404 29.3523 20.4653 29.2067 20.588 29.084C20.7107 28.9613 20.8563 28.9 21.025 28.9H35.607C35.7757 28.9 35.9213 28.9613 36.044 29.084C36.1667 29.2067 36.228 29.3523 36.228 29.521V32.994C36.228 33.1627 36.1667 33.3083 36.044 33.431C35.9213 33.5537 35.7757 33.615 35.607 33.615H31.444V40.285ZM45.741 38.79C45.741 39.4187 45.948 39.9017 46.362 40.239C46.7914 40.5763 47.3664 40.745 48.087 40.745C48.731 40.745 49.2064 40.6377 49.513 40.423C49.8197 40.2083 50.0804 39.8863 50.295 39.457C50.4944 39.0583 50.7627 38.859 51.1 38.859H56.068C56.206 38.859 56.321 38.9127 56.413 39.02C56.5204 39.112 56.574 39.227 56.574 39.365C56.574 40.3003 56.2597 41.2203 55.631 42.125C55.0024 43.0143 54.044 43.758 52.756 44.356C51.4834 44.9387 49.927 45.23 48.087 45.23C46.4464 45.23 44.982 44.9847 43.694 44.494C42.4214 43.988 41.4094 43.2213 40.658 42.194C39.9067 41.1513 39.531 39.8557 39.531 38.307V35.593C39.531 34.0443 39.9067 32.7563 40.658 31.729C41.4094 30.6863 42.4214 29.9197 43.694 29.429C44.982 28.923 46.4464 28.67 48.087 28.67C49.927 28.67 51.4834 28.969 52.756 29.567C54.044 30.1497 55.0024 30.8933 55.631 31.798C56.2597 32.6873 56.574 33.5997 56.574 34.535C56.574 34.673 56.5204 34.7957 56.413 34.903C56.321 34.995 56.206 35.041 56.068 35.041H51.1C50.7627 35.041 50.4944 34.8417 50.295 34.443C50.0804 34.0137 49.8197 33.6917 49.513 33.477C49.2064 33.2623 48.731 33.155 48.087 33.155C47.3664 33.155 46.7914 33.3237 46.362 33.661C45.948 33.9983 45.741 34.4813 45.741 35.11V38.79ZM16.71 56.9C16.8787 56.9 17.0243 56.9613 17.147 57.084C17.2697 57.2067 17.331 57.3523 17.331 57.521V61.224C17.331 61.3927 17.2697 61.5383 17.147 61.661C17.0243 61.7837 16.8787 61.845 16.71 61.845H11.765V72.379C11.765 72.5477 11.7037 72.6933 11.581 72.816C11.4583 72.9387 11.3127 73 11.144 73H6.406C6.23733 73 6.09167 72.9387 5.969 72.816C5.84633 72.6933 5.785 72.5477 5.785 72.379V61.845H0.84C0.671333 61.845 0.525667 61.7837 0.403 61.661C0.280333 61.5383 0.219 61.3927 0.219 61.224V57.521C0.219 57.3523 0.280333 57.2067 0.403 57.084C0.525667 56.9613 0.671333 56.9 0.84 56.9H16.71ZM25.004 72.218C24.8047 72.7393 24.4597 73 23.969 73H19.622C19.484 73 19.3613 72.954 19.254 72.862C19.162 72.7547 19.116 72.632 19.116 72.494L19.139 72.356L24.153 57.659C24.2143 57.4597 24.3293 57.2833 24.498 57.13C24.6667 56.9767 24.8967 56.9 25.188 56.9H31.582C31.8733 56.9 32.1033 56.9767 32.272 57.13C32.4407 57.2833 32.5557 57.4597 32.617 57.659L37.631 72.356L37.654 72.494C37.654 72.632 37.6003 72.7547 37.493 72.862C37.401 72.954 37.286 73 37.148 73H32.801C32.3103 73 31.9653 72.7393 31.766 72.218L31.191 70.608H25.579L25.004 72.218ZM28.385 61.339L26.752 66.123H30.018L28.385 61.339ZM45.741 66.79C45.741 67.4187 45.948 67.9017 46.362 68.239C46.7914 68.5763 47.3664 68.745 48.087 68.745C48.731 68.745 49.2064 68.6377 49.513 68.423C49.8197 68.2083 50.0804 67.8863 50.295 67.457C50.4944 67.0583 50.7627 66.859 51.1 66.859H56.068C56.206 66.859 56.321 66.9127 56.413 67.02C56.5204 67.112 56.574 67.227 56.574 67.365C56.574 68.3003 56.2597 69.2203 55.631 70.125C55.0024 71.0143 54.044 71.758 52.756 72.356C51.4834 72.9387 49.927 73.23 48.087 73.23C46.4464 73.23 44.982 72.9847 43.694 72.494C42.4214 71.988 41.4094 71.2213 40.658 70.194C39.9067 69.1513 39.531 67.8557 39.531 66.307V63.593C39.531 62.0443 39.9067 60.7563 40.658 59.729C41.4094 58.6863 42.4214 57.9197 43.694 57.429C44.982 56.923 46.4464 56.67 48.087 56.67C49.927 56.67 51.4834 56.969 52.756 57.567C54.044 58.1497 55.0024 58.8933 55.631 59.798C56.2597 60.6873 56.574 61.5997 56.574 62.535C56.574 62.673 56.5204 62.7957 56.413 62.903C56.321 62.995 56.206 63.041 56.068 63.041H51.1C50.7627 63.041 50.4944 62.8417 50.295 62.443C50.0804 62.0137 49.8197 61.6917 49.513 61.477C49.2064 61.2623 48.731 61.155 48.087 61.155C47.3664 61.155 46.7914 61.3237 46.362 61.661C45.948 61.9983 45.741 62.4813 45.741 63.11V66.79Z" fill="#ED55A9"/>
</svg>